<svg width="40" height="40" viewBox="0 0 40 40" fill="none" xmlns="http://www.w3.org/2000/svg">
  <!-- Circular background -->
  <circle cx="20" cy="20" r="20" fill="white"/>
  
  <!-- Venus symbol stylized -->
  <path d="M20 8C16.1339 8 13 11.1339 13 15C13 18.5 15.5 21.5 19 22V25H16V27H19V30H21V27H24V25H21V22C24.5 21.5 27 18.5 27 15C27 11.1339 23.8661 8 20 8ZM20 10C22.7615 10 25 12.2385 25 15C25 17.7615 22.7615 20 20 20C17.2385 20 15 17.7615 15 15C15 12.2385 17.2385 10 20 10Z" fill="#FF4C39"/>
  
  <!-- Decorative elements -->
  <path d="M28 12C28.5523 12 29 11.5523 29 11C29 10.4477 28.5523 10 28 10C27.4477 10 27 10.4477 27 11C27 11.5523 27.4477 12 28 12Z" fill="#FFB473"/>
  <path d="M12 28C12.5523 28 13 27.5523 13 27C13 26.4477 12.5523 26 12 26C11.4477 26 11 26.4477 11 27C11 27.5523 11.4477 28 12 28Z" fill="#FFB473"/>
</svg> 